# File created by Blade
# Date/Time:  Thu Jan 22 16:36:26 2015
# Frame Rate: 120.000 fps
#------------------------------------------------------
:FULLY-SPECIFIED
:DEGREES
1593
root 0.505700 5.052487 -9.535820 -39.069237 -8.726838 30.034714
RightUpLeg -93.374911 -17.825144 41.223732
RightLeg 135.279404 -0.000000 -0.000000
RightFoot 56.248128 -22.619919 79.158349
RightToeBase -111.083193 -0.000000 0.000000
LeftUpLeg -8.770313 -16.747532 32.126030
LeftLeg 139.558893 -0.000000 -0.000000
LeftFoot -8.614819 19.187751 -19.599495
LeftToeBase -2.782064 -0.000000 0.000000
Spine 61.251453 9.097696 -5.397820
RightShoulder 17.193504 -5.377682 -31.379748
RightArm 64.410698 -30.738151 55.991939
RightForeArm -8.687727 0.000000 50.744848
RightHand -3.304363 -0.000000 -5.051841
RightHandThumb1 -24.326973 -0.000000 -32.862282
LeftShoulder -19.625253 30.291237 -12.007174
LeftArm 47.158928 -2.941514 -67.319146
LeftForeArm 24.624949 0.000000 18.770939
LeftHand -8.015081 -0.000000 -6.257288
LeftHandThumb1 -26.253704 0.000000 33.147579
Head 15.599070 22.815006 -30.409682
1594
root 0.475064 5.065456 -9.516863 -39.043402 -8.823168 30.061756
RightUpLeg -93.107649 -18.393813 40.855516
RightLeg 135.226925 -0.000000 -0.000000
RightFoot 55.855555 -23.626268 78.354935
RightToeBase -112.119720 -0.000000 0.000000
LeftUpLeg -8.654478 -16.750107 32.151751
LeftLeg 139.436376 -0.000000 -0.000000
LeftFoot -8.514396 18.982234 -19.446579
LeftToeBase -2.874541 -0.000000 0.000000
Spine 61.294392 9.078080 -5.362324
RightShoulder 17.386743 -5.271227 -31.083247
RightArm 64.297187 -30.631537 56.010292
RightForeArm -8.667450 0.000000 49.667146
RightHand -3.257835 -0.000000 -4.595432
RightHandThumb1 -24.326973 -0.000000 -32.862282
LeftShoulder -19.569622 30.230155 -12.031768
LeftArm 47.188098 -2.990487 -67.283801
LeftForeArm 24.449757 -0.000000 18.472380
LeftHand -7.971617 -0.000000 -6.188421
LeftHandThumb1 -26.253704 0.000000 33.147579
Head 15.228077 22.445093 -30.305764
1595
root 0.440429 5.080896 -9.491714 -39.079091 -8.893606 30.003036
RightUpLeg -93.093988 -19.054585 40.996508
RightLeg 135.391714 -0.000000 -0.000000
RightFoot 53.060521 -23.618241 75.796154
RightToeBase -112.302499 -0.000000 0.000000
LeftUpLeg -8.477930 -16.856533 32.227120
LeftLeg 139.320544 -0.000000 -0.000000
LeftFoot -8.485781 18.755913 -19.359048
LeftToeBase -3.017783 -0.000000 0.000000
Spine 61.458098 8.985685 -5.237165
RightShoulder 17.577612 -5.113505 -30.812889
RightArm 64.294416 -30.515241 55.856983
RightForeArm -8.425687 -0.000000 48.459735
RightHand -2.935871 0.000000 -4.475516
RightHandThumb1 -24.326973 -0.000000 -32.862282
LeftShoulder -19.381713 29.951170 -11.904228
LeftArm 46.917499 -2.975452 -67.352011
LeftForeArm 24.380570 0.000000 18.264162
LeftHand -7.999075 -0.000000 -6.083297
LeftHandThumb1 -26.253704 0.000000 33.147579
Head 14.756573 22.063934 -30.232720
1596
root 0.390603 5.098543 -9.464246 -39.230338 -9.043475 29.812585
RightUpLeg -93.555878 -19.737580 42.491737
RightLeg 135.921859 -0.000000 -0.000000
RightFoot 44.671782 -21.445762 68.081122
RightToeBase -111.378465 -0.000000 0.000000
LeftUpLeg -8.169689 -17.052462 32.473628
LeftLeg 139.165073 -0.000000 -0.000000
LeftFoot -8.407457 18.537450 -19.250978
LeftToeBase -3.310049 -0.000000 0.000000
Spine 61.782677 8.838410 -4.940460
RightShoulder 17.771716 -5.084519 -30.686629
RightArm 64.671599 -30.326791 55.201344
RightForeArm -7.333979 -0.000000 47.301311
RightHand -2.804119 0.000000 -4.440576
RightHandThumb1 -24.326973 -0.000000 -32.862282
LeftShoulder -19.290584 29.929278 -11.939593
LeftArm 46.939040 -3.043890 -67.432650
LeftForeArm 24.167193 -0.000000 18.039206
LeftHand -7.897142 -0.000000 -5.957360
LeftHandThumb1 -26.253704 0.000000 33.147579
Head 14.229201 21.653828 -30.197128
1597
root 0.345298 5.120595 -9.445003 -39.333759 -9.229249 29.602350
RightUpLeg -94.368944 -20.286213 44.839788
RightLeg 136.170239 -0.000000 -0.000000
RightFoot 36.515623 -23.278881 56.655236
RightToeBase -110.502717 -0.000000 0.000000
LeftUpLeg -7.919735 -17.202716 32.752695
LeftLeg 139.031895 -0.000000 -0.000000
LeftFoot -8.339958 18.325134 -19.257307
LeftToeBase -3.382448 -0.000000 0.000000
Spine 62.119433 8.652065 -4.598517
RightShoulder 18.026510 -4.777905 -30.591795
RightArm 64.525079 -30.140987 55.064712
RightForeArm -6.468578 -0.000000 46.603927
RightHand -2.781952 -0.000000 -4.801047
RightHandThumb1 -24.326973 -0.000000 -32.862282
LeftShoulder -19.127534 29.681597 -11.965761
LeftArm 46.711745 -3.051413 -67.477654
LeftForeArm 24.008162 -0.000000 17.910014
LeftHand -7.842952 -0.000000 -5.814128
LeftHandThumb1 -26.253704 0.000000 33.147579
Head 13.604690 21.245275 -30.257565
1598
root 0.329985 5.116197 -9.505756 -38.897227 -9.829202 29.318386
RightUpLeg -95.066290 -19.901238 48.696032
RightLeg 134.687841 -0.000000 -0.000000
RightFoot 31.863638 -28.688135 36.311147
RightToeBase -125.124722 -0.000000 0.000000
LeftUpLeg -8.213775 -16.847620 33.493336
LeftLeg 139.090384 -0.000000 -0.000000
LeftFoot -8.234187 18.185882 -19.146644
LeftToeBase -3.657282 -0.000000 0.000000
Spine 62.042132 8.531595 -3.928917
RightShoulder 18.254499 -4.377620 -30.665842
RightArm 64.291412 -29.828763 54.966945
RightForeArm -5.895287 -0.000000 46.263590
RightHand -2.496645 -0.000000 -4.997774
RightHandThumb1 -24.326973 -0.000000 -32.862282
LeftShoulder -19.133143 29.742028 -12.488320
LeftArm 47.033623 -3.189442 -67.409232
LeftForeArm 23.800878 -0.000000 17.723227
LeftHand -7.783266 -0.000000 -5.692035
LeftHandThumb1 -26.253704 0.000000 33.147579
Head 12.771846 20.719028 -30.649958
1599
root 0.320110 5.107012 -9.534473 -38.549347 -10.191933 29.214186
RightUpLeg -95.058023 -19.812513 49.908224
RightLeg 133.936901 -0.000000 -0.000000
RightFoot 32.650793 -27.985753 25.811768
RightToeBase -132.008303 -0.000000 0.000000
LeftUpLeg -8.426706 -16.532236 33.907802
LeftLeg 139.139805 -0.000000 -0.000000
LeftFoot -8.209351 18.096768 -19.034570
LeftToeBase -3.924109 -0.000000 0.000000
Spine 61.924009 8.487963 -3.588659
RightShoulder 18.484194 -4.062575 -30.699119
RightArm 63.975623 -29.496400 55.094064
RightForeArm -5.206408 -0.000000 46.135311
RightHand -2.688742 -0.000000 -5.405463
RightHandThumb1 -24.326973 -0.000000 -32.862282
LeftShoulder -19.062717 29.706554 -12.705097
LeftArm 47.062839 -3.212281 -67.365755
LeftForeArm 23.600220 -0.000000 17.634255
LeftHand -7.731509 -0.000000 -5.520601
LeftHandThumb1 -26.253704 0.000000 33.147579
Head 12.071323 20.243762 -30.720769
1600
root 0.306592 5.106717 -9.537308 -38.372162 -10.412222 29.189708
RightUpLeg -95.105686 -19.932968 50.582196
RightLeg 133.757704 -0.000000 -0.000000
RightFoot 33.822190 -24.867706 19.000075
RightToeBase -131.902012 -0.000000 0.000000
LeftUpLeg -8.452717 -16.300377 34.100293
LeftLeg 139.148628 -0.000000 -0.000000
LeftFoot -8.274111 18.061637 -18.840699
LeftToeBase -4.204363 -0.000000 0.000000
Spine 61.943350 8.488947 -3.366169
RightShoulder 18.599082 -3.968662 -30.747352
RightArm 63.879945 -29.118269 55.207502
RightForeArm -4.172758 0.000000 45.967217
RightHand -2.280689 -0.000000 -5.257837
RightHandThumb1 -24.326973 -0.000000 -32.862282
LeftShoulder -18.974540 29.695380 -12.828735
LeftArm 47.065580 -3.202686 -67.296250
LeftForeArm 23.369549 -0.000000 17.604977
LeftHand -7.627622 -0.000000 -5.410023
LeftHandThumb1 -26.253704 0.000000 33.147579
Head 11.412092 19.755264 -30.617743
1601
root 0.304754 5.106063 -9.546457 -38.109139 -10.608581 29.183645
RightUpLeg -95.173535 -19.938554 51.194068
RightLeg 133.476216 -0.000000 -0.000000
RightFoot 33.959361 -22.605010 12.993556
RightToeBase -132.391888 -0.000000 0.000000
LeftUpLeg -8.594389 -15.993680 34.260915
LeftLeg 139.214476 -0.000000 -0.000000
LeftFoot -8.550302 18.029402 -18.788709
LeftToeBase -4.262645 -0.000000 0.000000
Spine 61.890439 8.472799 -3.162359
RightShoulder 18.665893 -3.732151 -30.841274
RightArm 63.579859 -28.873599 55.500289
RightForeArm -3.698464 -0.000000 46.007744
RightHand -2.211702 -0.000000 -5.484786
RightHandThumb1 -24.326973 -0.000000 -32.862282
LeftShoulder -18.897796 29.788312 -13.031142
LeftArm 47.193208 -3.259149 -67.245184
LeftForeArm 23.276361 -0.000000 17.590310
LeftHand -7.623579 -0.000000 -5.282979
LeftHandThumb1 -26.253704 0.000000 33.147579
Head 10.719950 19.217638 -30.524464
1602
root 0.313478 5.110379 -9.546728 -37.873486 -10.659042 29.262523
RightUpLeg -95.415770 -19.970374 51.629510
RightLeg 133.354615 -0.000000 -0.000000
RightFoot 34.060858 -20.442493 10.103580
RightToeBase -128.299415 -0.000000 0.000000
LeftUpLeg -8.738945 -15.702220 34.218748
LeftLeg 139.313099 -0.000000 -0.000000
LeftFoot -8.717269 18.072412 -18.448408
LeftToeBase -4.689786 -0.000000 0.000000
Spine 61.833613 8.453887 -3.066596
RightShoulder 18.605479 -3.537789 -31.023539
RightArm 63.320462 -28.696172 55.868461
RightForeArm -3.710730 0.000000 46.081918
RightHand -2.189726 0.000000 -5.614137
RightHandThumb1 -24.326973 -0.000000 -32.862282
LeftShoulder -18.789815 29.716671 -13.132616
LeftArm 47.156466 -3.214592 -67.173248
LeftForeArm 23.251263 -0.000000 17.623203
LeftHand -7.612989 -0.000000 -5.321181
LeftHandThumb1 -26.253704 0.000000 33.147579
Head 10.116285 18.658294 -30.343048
1603
root 0.318356 5.116891 -9.536429 -37.674749 -10.648620 29.316305
RightUpLeg -95.650475 -20.050318 51.758995
RightLeg 132.906906 -0.000000 -0.000000
RightFoot 33.161497 -20.210623 11.815819
RightToeBase -129.763055 -0.000000 0.000000
LeftUpLeg -8.841184 -15.479959 34.164104
LeftLeg 139.403658 -0.000000 -0.000000
LeftFoot -8.892513 18.131929 -18.117333
LeftToeBase -5.328668 -0.000000 0.000000
Spine 61.786876 8.382586 -3.007034
RightShoulder 18.537184 -3.263797 -31.255094
RightArm 62.998739 -28.628100 56.297656
RightForeArm -3.733575 -0.000000 46.172905
RightHand -2.213368 -0.000000 -5.869223
RightHandThumb1 -24.326973 -0.000000 -32.862282
LeftShoulder -18.770181 29.694708 -13.278117
LeftArm 47.217972 -3.164943 -67.097250
LeftForeArm 23.148786 -0.000000 17.576647
LeftHand -7.558386 0.000000 -5.283228
LeftHandThumb1 -26.253704 0.000000 33.147579
Head 9.559621 18.100034 -30.119786
1604
root 0.334552 5.123658 -9.526522 -37.424419 -10.606407 29.478194
RightUpLeg -95.898013 -20.022440 51.677057
RightLeg 132.480438 -0.000000 -0.000000
RightFoot 32.756596 -19.975758 12.457593
RightToeBase -130.850164 -0.000000 0.000000
LeftUpLeg -8.994370 -15.185470 33.988751
LeftLeg 139.516686 -0.000000 -0.000000
LeftFoot -9.188239 18.072827 -18.143703
LeftToeBase -4.489303 -0.000000 0.000000
Spine 61.635615 8.392397 -3.049936
RightShoulder 18.406544 -3.046209 -31.471943
RightArm 62.777435 -28.615840 56.605430
RightForeArm -3.555664 -0.000000 46.168605
RightHand -2.273693 0.000000 -5.982149
RightHandThumb1 -24.326973 -0.000000 -32.862282
LeftShoulder -18.725888 29.655561 -13.370837
LeftArm 47.259268 -3.157325 -67.101036
LeftForeArm 23.141824 -0.000000 17.488687
LeftHand -7.468371 -0.000000 -5.257234
LeftHandThumb1 -26.253704 0.000000 33.147579
Head 9.096414 17.468524 -29.899621
